#!OML:ASF X:\für Bonn\!DataBase\2005_08_12_Daniel\c3d\Daniel.ASF
:FULLY-SPECIFIED
:DEGREES
81
root 4.37426 16.5736 -2.97144 -166.609 -82.8371 136.861
lowerback 40.2459 0.491925 3.59382
upperback 13.8032 -0.927434 -7.27256
thorax -4.35335 -1.00547 -9.25075
lowerneck 10.7393 9.216 -8.89691
upperneck 29.8626 8.84896 5.89828
head 6.83119 2.94895 3.52085
rclavicle 3.1408e-014 -1.90833e-014
rhumerus -63.1548 -43.6909 -38.2543
rradius 8.25623
rwrist 91.6864
rhand -8.77264 15.7672
rfingers 7.12502
rthumb 17.1653 -13.4945
lclavicle 3.1408e-014 -1.90833e-014
lhumerus -35.968 -9.83031 86.8885
lradius 132.156
lwrist 12.1275
lhand -20.0706 -24.4748
lfingers 7.12502
lthumb 6.27167 5.41234
rfemur 8.3361 -2.62411 18.4033
rtibia 43.9855
rfoot -27.3432 -11.3
rtoes -7.39804
lfemur -63.0331 7.2573 -19.7476
ltibia 114.663
lfoot 24.0615 -7.69655
ltoes -21.051
82
root 4.39497 16.604 -2.97408 -167.461 -83.1007 138.759
lowerback 39.1743 0.328764 3.78384
upperback 13.6248 -0.976565 -7.23069
thorax -4.22758 -0.995221 -9.29527
lowerneck 10.8598 9.26189 -8.86121
upperneck 29.6281 8.93052 5.81529
head 6.73456 2.99561 3.47427
rclavicle 7.95139e-016 -5.88403e-014
rhumerus -63.9319 -43.6403 -36.9382
rradius 8.09347
rwrist 91.5562
rhand -8.7235 15.358
rfingers 7.12502
rthumb 17.2126 -13.8997
lclavicle 7.95139e-016 -5.88403e-014
lhumerus -35.4267 -10.2106 86.7414
lradius 132.083
lwrist 11.9557
lhand -20.1349 -24.683
lfingers 7.12502
lthumb 6.20958 5.20597
rfemur 7.28353 -2.6692 18.8711
rtibia 43.7933
rfoot -27.2678 -11.4212
rtoes -7.09223
lfemur -61.1476 6.78766 -19.4408
ltibia 114.735
lfoot 24.9399 -6.52439
ltoes -19.5846
83
root 4.41396 16.6326 -2.97698 -167.923 -83.3468 140.21
lowerback 38.0541 0.191112 3.89427
upperback 13.5437 -1.03341 -7.17851
thorax -4.1172 -0.996533 -9.26451
lowerneck 10.9802 9.30959 -8.87049
upperneck 29.3705 9.02344 5.68427
head 6.6315 3.04122 3.41865
rclavicle 1.19271e-014 -5.56597e-014
rhumerus -64.7472 -43.4545 -35.578
rradius 8.07381
rwrist 91.34
rhand -8.82661 15.1842
rfingers 7.12502
rthumb 17.1133 -14.0821
lclavicle 1.19271e-014 -5.56597e-014
lhumerus -34.9144 -10.5468 86.5845
lradius 132.035
lwrist 11.8936
lhand -20.0974 -24.8081
lfingers 7.12502
lthumb 6.24581 5.07984
rfemur 6.2876 -2.69014 19.266
rtibia 43.6189
rfoot -27.2144 -11.561
rtoes -6.74477
lfemur -59.2322 6.27516 -19.1692
ltibia 114.644
lfoot 25.3044 -5.19609
ltoes -17.8848
84
root 4.43095 16.6552 -2.97928 -167.999 -83.5796 141.216
lowerback 37.0957 0.0585262 3.93154
upperback 13.3656 -1.11769 -7.13114
thorax -4.01385 -1.01339 -9.2097
lowerneck 10.9708 9.35488 -8.85554
upperneck 29.2204 9.12934 5.53185
head 6.58638 3.09086 3.36145
rclavicle 2.38542e-015 3.02153e-014
rhumerus -65.6076 -43.1513 -34.2189
rradius 8.17786
rwrist 91.2483
rhand -9.09183 15.1837
rfingers 7.12502
rthumb 16.858 -14.1046
lclavicle 2.38542e-015 3.02153e-014
lhumerus -34.4002 -10.8794 86.3879
lradius 131.992
lwrist 11.9228
lhand -20.0708 -24.9227
lfingers 7.12502
lthumb 6.27144 4.96443
rfemur 5.32785 -2.68642 19.591
rtibia 43.5057
rfoot -27.222 -11.6521
rtoes -6.29821
lfemur -57.2807 5.71858 -18.9247
ltibia 114.404
lfoot 24.7838 -3.72396
ltoes -17.2773
85
root 4.44312 16.6759 -2.98098 -167.778 -83.7975 141.86
lowerback 36.1415 -0.0627444 3.91219
upperback 13.2135 -1.21475 -7.08309
thorax -3.87532 -1.03937 -9.12061
lowerneck 10.9069 9.39373 -8.82396
upperneck 29.0777 9.24374 5.33665
head 6.55535 3.14431 3.29052
rclavicle -1.43125e-014 -4.6118e-014
rhumerus -66.4565 -42.7922 -32.8978
rradius 8.39703
rwrist 91.2523
rhand -9.46756 15.2575
rfingers 7.12502
rthumb 16.4963 -14.0612
lclavicle -1.43125e-014 -4.6118e-014
lhumerus -33.8934 -11.1707 86.174
lradius 131.938
lwrist 11.9803
lhand -20.0622 -25.0636
lfingers 7.12502
lthumb 6.27981 4.82334
rfemur 4.41957 -2.66611 19.8566
rtibia 43.4712
rfoot -27.2836 -11.747
rtoes -5.91713
lfemur -55.2473 5.10842 -18.7055
ltibia 113.988
lfoot 23.6375 -2.15732
ltoes -17.8702
86
root 4.45235 16.6922 -2.9827 -167.62 -83.9956 142.524
lowerback 35.2146 -0.170066 3.86821
upperback 13.0745 -1.30694 -7.02376
thorax -3.72057 -1.06519 -9.00927
lowerneck 10.754 9.42241 -8.79006
upperneck 28.9714 9.35952 5.12532
head 6.55134 3.19773 3.21938
rclavicle 1.51076e-014 -1.59028e-014
rhumerus -67.2561 -42.4375 -31.614
rradius 8.68605
rwrist 91.4119
rhand -9.91998 15.3011
rfingers 7.12502
rthumb 16.0607 -14.0533
lclavicle 1.51076e-014 -1.59028e-014
lhumerus -33.3815 -11.4599 85.9446
lradius 131.914
lwrist 12.1014
lhand -19.9845 -25.1936
lfingers 7.12502
lthumb 6.35474 4.69106
rfemur 3.51922 -2.61092 20.1187
rtibia 43.5357
rfoot -27.4237 -11.8315
rtoes -5.53659
lfemur -53.1685 4.47268 -18.4635
ltibia 113.413
lfoot 22.3636 -0.487168
ltoes -17.916
87
root 4.46064 16.699 -2.98303 -167.471 -84.2061 143.177
lowerback 34.3158 -0.292796 3.79501
upperback 12.9229 -1.428 -6.95221
thorax -3.5844 -1.10759 -8.85996
lowerneck 10.6417 9.47022 -8.79152
upperneck 28.7867 9.49744 4.91701
head 6.51196 3.26183 3.15063
rclavicle 1.31198e-014 -1.43125e-014
rhumerus -67.9255 -42.0753 -30.4225
rradius 8.98344
rwrist 91.7274
rhand -10.3457 15.3456
rfingers 7.12502
rthumb 15.6508 -14.0414
lclavicle 1.31198e-014 -1.43125e-014
lhumerus -32.9043 -11.6956 85.723
lradius 131.903
lwrist 12.1989
lhand -19.9122 -25.2813
lfingers 7.12502
lthumb 6.42456 4.60127
rfemur 2.58123 -2.55885 20.3802
rtibia 43.6869
rfoot -27.5891 -11.9276
rtoes -5.19939
lfemur -51.1531 3.79726 -18.1952
ltibia 112.713
lfoot 21.0654 1.26439
ltoes -17.2055
